<svg height="512pt" viewBox="0 0 512 512" width="512pt" xmlns="http://www.w3.org/2000/svg"><path d="m497 45v301h-482v-301c0-16.5 13.5-30 30-30h422c16.5 0 30 13.5 30 30zm0 0" fill="#a8ebfa"/><path d="m497 45v301h-241v-331h211c16.5 0 30 13.5 30 30zm0 0" fill="#76e2f8"/><path d="m331 88.980469c-28.0625.320312-52.257812 23.019531-75 40.820312-20.691406-16.335937-45.574219-40.484375-75-40.820312-15.519531-.179688-30-1.429688-30 15.019531v152c0 17.398438 16.199219 15 32.699219 15 22.800781 0 45.300781 9.300781 61.800781 25.5 2.101562 2.699219 6.601562 4.5 10.5 4.5 2.101562 0 3.898438-.300781 5.699219-1.199219h.300781c1.5-.902343 3.300781-1.800781 4.5-3.300781 16.5-16.199219 39-25.5 61.800781-25.5 16.5 0 32.699219 2.398438 32.699219-15v-152c0-16.449219-14.480469-15.199219-30-15.019531zm0 0" fill="#ff4b00"/><path d="m361 104v152c0 17.398438-16.199219 15-32.699219 15-22.800781 0-45.300781 9.300781-61.800781 25.5-1.199219 1.5-3 2.398438-4.5 3.300781-.300781 0-.300781 0-.300781 0-1.800781.898438-3.597657 1.199219-5.699219 1.199219v-186.199219c20.699219-16.199219 46.199219-25.800781 72.300781-25.800781 16.5 0 32.699219-2.402344 32.699219 15zm0 0" fill="#f03800"/><path d="m331 88.980469v152.039062c-.898438-.007812-1.800781-.019531-2.699219-.019531-25.949219 0-51.628906 8.960938-72.300781 24.929688-20.671875-15.96875-46.351562-24.929688-72.300781-24.929688-.898438 0-1.800781.011719-2.699219.019531v-152.039062c.898438.007812 1.800781.019531 2.699219.019531 11.699219 0 23.402343 2.101562 34.5 5.699219 13.800781 4.199219 26.402343 11.101562 37.800781 20.101562 20.699219-16.199219 46.199219-25.800781 72.300781-25.800781.898438 0 1.800781-.011719 2.699219-.019531zm0 0" fill="#ffe9cb"/><path d="m328.300781 241c.898438 0 1.800781.011719 2.699219.019531v-152.039062c-.898438.011719-1.796875.019531-2.699219.019531-26.101562 0-51.601562 9.601562-72.300781 25.800781v151.128907c20.671875-15.96875 46.351562-24.929688 72.300781-24.929688zm0 0" fill="#ffd396"/><path d="m330.699219 497h-149.398438c0-1.5 0-3.300781.601563-4.800781l30-91c1.796875-6 7.5-10.199219 14.097656-10.199219h60c6.597656 0 12.300781 4.199219 14.097656 10.199219l30 91c.601563 1.5.601563 3.300781.601563 4.800781zm0 0" fill="#ff9f00"/><path d="m467 0h-422c-24.902344 0-45 20.097656-45 45v316l83.402344 30h364.398437l64.199219-30v-316c0-24.902344-20.097656-45-45-45zm15 331h-452v-286c0-8.402344 6.597656-15 15-15h422c8.402344 0 15 6.597656 15 15zm0 0" fill="#804231"/><path d="m330.097656 492.199219c.601563 1.5.601563 3.300781.601563 4.800781h-74.699219v-106h30c6.597656 0 12.300781 4.199219 14.097656 10.199219zm0 0" fill="#ff7816"/><path d="m512 45v316l-64.199219 30h-191.800781v-60h226v-286c0-8.402344-6.597656-15-15-15h-211v-30h211c24.902344 0 45 20.097656 45 45zm0 0" fill="#663325"/><path d="m0 361v15c0 24.898438 20.097656 45 45 45h422c24.902344 0 45-20.101562 45-45v-15zm0 0" fill="#ffd396"/><path d="m512 361v15c0 24.898438-20.097656 45-45 45h-211v-60zm0 0" fill="#ffc473"/><path d="m391 497c0 8.398438-6.597656 15-15 15h-240c-8.402344 0-15-6.601562-15-15 0-8.402344 6.597656-15 15-15h240c8.402344 0 15 6.597656 15 15zm0 0" fill="#ffd396"/><path d="m391 497c0 8.398438-6.597656 15-15 15h-120v-30h120c8.402344 0 15 6.597656 15 15zm0 0" fill="#ffc473"/></svg>