<svg height="480pt" viewBox="0 0 480 480" width="480pt" xmlns="http://www.w3.org/2000/svg"><g fill="#bfbfbf"><path d="m152 192h-16v-84.6875l-21.65625-21.65625 11.3125-11.3125 26.34375 26.34375zm0 0"/><path d="m168 80h16v112h-16zm0 0"/><path d="m216 192h-16v-59.3125l16-16v-76.6875h16v83.3125l-16 16zm0 0"/></g><path d="m112 88c-13.230469 0-24-10.769531-24-24s10.769531-24 24-24 24 10.769531 24 24-10.769531 24-24 24zm0-32c-4.40625 0-8 3.59375-8 8s3.59375 8 8 8 8-3.59375 8-8-3.59375-8-8-8zm0 0" fill="#df6a66"/><path d="m224 48c-13.230469 0-24-10.769531-24-24s10.769531-24 24-24 24 10.769531 24 24-10.769531 24-24 24zm0-32c-4.40625 0-8 3.59375-8 8s3.59375 8 8 8 8-3.59375 8-8-3.59375-8-8-8zm0 0" fill="#74c865"/><path d="m176 88c-13.230469 0-24-10.769531-24-24s10.769531-24 24-24 24 10.769531 24 24-10.769531 24-24 24zm0-32c-4.40625 0-8 3.59375-8 8s3.59375 8 8 8 8-3.59375 8-8-3.59375-8-8-8zm0 0" fill="#69cfe3"/><path d="m240 24c0 8.835938-7.164062 16-16 16s-16-7.164062-16-16 7.164062-16 16-16 16 7.164062 16 16zm0 0" fill="#5da351"/><path d="m192 64c0 8.835938-7.164062 16-16 16s-16-7.164062-16-16 7.164062-16 16-16 16 7.164062 16 16zm0 0" fill="#4a98c5"/><path d="m128 64c0 8.835938-7.164062 16-16 16s-16-7.164062-16-16 7.164062-16 16-16 16 7.164062 16 16zm0 0" fill="#bd3d47"/><path d="m256 480h-168l40-40h128" fill="#404040"/><path d="m0 184h368v256h-368zm0 0" fill="#4d4d4d"/><path d="m32 216h304v192h-304zm0 0" fill="#e8e8e8"/><path d="m384 304h96v176h-96zm0 0" fill="#4a98c5"/><path d="m384 304h64v144h-64zm0 0" fill="#69cfe3"/><path d="m320 256h64v224h-64zm0 0" fill="#f19850"/><path d="m320 256h32v224h-32zm0 0" fill="#f5b465"/><path d="m256 288h64v192h-64zm0 0" fill="#5da351"/><path d="m256 288h32v192h-32zm0 0" fill="#74c865"/><path d="m144 264v96l80-48zm0 0" fill="#bd3d47"/></svg>