<?xml version="1.0" encoding="iso-8859-1"?>
<!-- Generator: Adobe Illustrator 19.0.0, SVG Export Plug-In . SVG Version: 6.00 Build 0)  -->
<svg version="1.1" id="Capa_1" xmlns="http://www.w3.org/2000/svg" xmlns:xlink="http://www.w3.org/1999/xlink" x="0px" y="0px"
	 viewBox="0 0 496.485 496.485" style="enable-background:new 0 0 496.485 496.485;" xml:space="preserve">
<path style="fill:#F16051;" d="M457.697,7.758H38.788c-17.067,0-31.03,13.964-31.03,31.03v332.8h480.97v-332.8
	C488.727,21.721,474.764,7.758,457.697,7.758z"/>
<path style="fill:#193651;" d="M457.697,0H38.788C17.067,0,0,17.067,0,38.788v332.8c0,4.655,3.103,7.758,7.758,7.758h480.97
	c4.655,0,7.758-3.103,7.758-7.758v-332.8C496.485,17.067,479.418,0,457.697,0z M480.97,363.83H15.515V38.788
	c0-13.188,10.085-23.273,23.273-23.273h418.909c13.188,0,23.273,10.085,23.273,23.273V363.83z"/>
<rect x="38.788" y="38.788" style="fill:#FFFFFF;" width="418.909" height="301.77"/>
<path style="fill:#E1E6E9;" d="M7.758,371.588v37.236c0,17.067,13.964,31.03,31.03,31.03h418.909c17.067,0,31.03-13.964,31.03-31.03
	v-37.236H7.758z"/>
<path style="fill:#193651;" d="M457.697,447.612H38.788C17.067,447.612,0,430.545,0,408.824v-37.236
	c0-4.655,3.103-7.758,7.758-7.758h480.97c4.655,0,7.758,3.103,7.758,7.758v37.236C496.485,430.545,479.418,447.612,457.697,447.612z
	 M15.515,379.345v29.479c0,13.188,10.085,23.273,23.273,23.273h418.909c13.188,0,23.273-10.085,23.273-23.273v-29.479H15.515z"/>
<rect x="186.182" y="439.855" style="fill:#FFFFFF;" width="124.121" height="48.873"/>
<g>
	<path style="fill:#193651;" d="M310.303,496.485H186.182c-4.655,0-7.758-3.103-7.758-7.758v-48.873
		c0-4.655,3.103-7.758,7.758-7.758h124.121c4.655,0,7.758,3.103,7.758,7.758v48.873
		C318.061,493.382,314.958,496.485,310.303,496.485z M193.939,480.97h108.606v-33.358H193.939V480.97z"/>
	<path style="fill:#193651;" d="M347.539,496.485H148.945c-4.655,0-7.758-3.103-7.758-7.758s3.103-7.758,7.758-7.758h198.594
		c4.655,0,7.758,3.103,7.758,7.758C355.297,493.382,352.194,496.485,347.539,496.485z"/>
	<rect x="198.594" y="397.964" style="fill:#193651;" width="15.515" height="15.515"/>
	<rect x="240.485" y="397.964" style="fill:#193651;" width="15.515" height="15.515"/>
	<rect x="282.376" y="397.964" style="fill:#193651;" width="15.515" height="15.515"/>
</g>
<path style="fill:#E1E6E9;" d="M177.648,69.818H93.091c-13.188,0-23.273,10.085-23.273,23.273v193.164
	c0,13.188,10.085,23.273,23.273,23.273h140.412c13.188,0,23.273-10.085,23.273-23.273V148.945L177.648,69.818z"/>
<path style="fill:#4FBF9F;" d="M200.921,148.945h55.855l-79.127-79.127v55.855C177.648,138.861,187.733,148.945,200.921,148.945z"/>
<polygon style="fill:#CFD0D1;" points="332.8,215.661 354.521,288.582 364.606,266.861 394.861,297.115 414.255,277.721 
	384,247.467 405.721,236.606 "/>
<rect x="276.945" y="72.921" style="fill:#2EA2DB;" width="159.03" height="109.382"/>
<polygon style="fill:#FFFFFF;" points="327.37,96.194 327.37,159.806 384.776,128 "/>
<g>
	<rect x="98.521" y="263.758" style="fill:#193651;" width="128.776" height="15.515"/>
	<rect x="98.521" y="222.642" style="fill:#193651;" width="128.776" height="15.515"/>
	<rect x="98.521" y="182.303" style="fill:#193651;" width="128.776" height="15.515"/>
	<rect x="98.521" y="100.073" style="fill:#193651;" width="50.424" height="15.515"/>
	<rect x="98.521" y="141.188" style="fill:#193651;" width="50.424" height="15.515"/>
</g>
<g>
</g>
<g>
</g>
<g>
</g>
<g>
</g>
<g>
</g>
<g>
</g>
<g>
</g>
<g>
</g>
<g>
</g>
<g>
</g>
<g>
</g>
<g>
</g>
<g>
</g>
<g>
</g>
<g>
</g>
</svg>
