<?xml version="1.0"?>
<svg xmlns="http://www.w3.org/2000/svg" xmlns:xlink="http://www.w3.org/1999/xlink" version="1.1" id="Layer_1" x="0px" y="0px" viewBox="0 0 512 512" style="enable-background:new 0 0 512 512;" xml:space="preserve" width="512px" height="512px" class=""><g transform="matrix(0.302405 0 0 0.302405 178.584 178.584)"><circle style="fill:#FF7F4F;" cx="256" cy="256" r="256" data-original="#FF7F4F" class=""/><path style="fill:#E03A00;" d="M143.496,364.385l145.503,145.503C404.085,495.076,495.24,403.846,509.928,288.72L366.187,144.979  L143.496,364.385z" data-original="#E03A00" class=""/><circle style="fill:#FFFFFF;" cx="256" cy="256" r="156.444" data-original="#FFFFFF" class=""/><path style="fill:#D3D3D3;" d="M99.578,254.276c-0.007,0.574-0.022,1.148-0.022,1.724c0,86.402,70.042,156.444,156.444,156.444  S412.444,342.402,412.444,256c0-0.576-0.016-1.15-0.022-1.724H99.578z" data-original="#D3D3D3" class=""/><path style="fill:#DB0529" d="M220.074,163.693l137.862,79.594c9.785,5.649,9.785,19.773,0,25.422l-137.862,79.594  c-9.785,5.649-22.018-1.412-22.018-12.712V176.402C198.056,165.105,210.287,158.044,220.074,163.693z" data-original="#DB0529" class=""/><path style="fill:#C2001B" d="M198.056,254.276v81.318c0,11.298,12.231,18.361,22.018,12.712l137.862-79.594  c5.463-3.155,7.868-8.949,7.232-14.436H198.056z" data-original="#C2001B" class="active-path"/></g> </svg>
