<svg height="464pt" viewBox="-8 0 464 464" width="464pt" xmlns="http://www.w3.org/2000/svg"><path d="m224 96c17.671875 0 32-14.328125 32-32v-24h-32l-16-8-8 8h-8v24c0 17.671875 14.328125 32 32 32zm0 0" fill="#ffdaaa"/><path d="m160 160v56c0 4.417969 3.582031 8 8 8h56v-56l-23.679688-55.359375c-23.234374 3.765625-40.308593 23.824219-40.320312 47.359375zm0 0" fill="#3d9ae2"/><path d="m247.679688 112.640625c-2.539063-.417969-5.105469-.632813-7.679688-.640625h-32c-2.574219.007812-5.140625.222656-7.679688.640625l23.679688 55.359375zm0 0" fill="#ffdaaa"/><path d="m247.679688 112.640625-23.679688 55.359375v56h56c4.417969 0 8-3.582031 8-8v-56c-.011719-23.535156-17.085938-43.59375-40.320312-47.359375zm0 0" fill="#5aaae7"/><path d="m208 32 16 8h40v-8c0-17.671875-14.328125-32-32-32h-16c-17.671875 0-32 14.328125-32 32v8h16zm0 0" fill="#787680"/><path d="m288 400c0 35.347656-28.652344 64-64 64s-64-28.652344-64-64 28.652344-64 64-64 64 28.652344 64 64zm0 0" fill="#ffd422"/><path d="m448 400c0 35.347656-28.652344 64-64 64s-64-28.652344-64-64 28.652344-64 64-64 64 28.652344 64 64zm0 0" fill="#ffd422"/><path d="m128 400c0 35.347656-28.652344 64-64 64s-64-28.652344-64-64 28.652344-64 64-64 64 28.652344 64 64zm0 0" fill="#ffd422"/><path d="m248 152h16v16h-16zm0 0" fill="#1e81ce"/><g fill="#ff6243"><path d="m232 392h-16c-4.417969 0-8-3.582031-8-8s3.582031-8 8-8h16c4.417969 0 8 3.582031 8 8h16c0-13.253906-10.746094-24-24-24v-8h-16v8c-13.253906 0-24 10.746094-24 24s10.746094 24 24 24h16c4.417969 0 8 3.582031 8 8s-3.582031 8-8 8h-16c-4.417969 0-8-3.582031-8-8h-16c0 13.253906 10.746094 24 24 24v8h16v-8c13.253906 0 24-10.746094 24-24s-10.746094-24-24-24zm0 0"/><path d="m101.65625 373.65625-11.3125-11.3125-26.34375 26.34375-26.34375-26.34375-11.3125 11.3125 26.34375 26.34375h-12.6875v16h16v8h-16v16h16v8h16v-8h16v-16h-16v-8h16v-16h-12.6875zm0 0"/><path d="m392 424c-10.132812-.042969-19.148438-6.445312-22.527344-16h30.527344v-16h-30.527344c4.125-11.707031 16.527344-18.3125 28.542969-15.199219l4-15.503906c-10.613281-2.734375-21.886719-1-31.1875 4.804687-9.300781 5.800782-15.816406 15.160157-18.027344 25.898438h-8.800781v16h8.800781c2.203125 10.738281 8.707031 20.101562 18.003907 25.910156 9.292968 5.8125 20.5625 7.558594 31.179687 4.832032l-4-15.503907c-1.957031.503907-3.964844.757813-5.984375.761719zm0 0"/><path d="m216 248h16v64h-16zm0 0"/><path d="m106.34375 306.339844 64.003906-64 11.3125 11.3125-64 64.003906zm0 0"/><path d="m266.339844 253.652344 11.3125-11.3125 64 64-11.3125 11.3125zm0 0"/></g></svg>