<svg xmlns="http://www.w3.org/2000/svg" width="1000" height="500" viewBox="0 0 1000 500"><style>.employee-left-arm{animation:leftArmFrames linear 2s;animation-iteration-count:infinite;transform-origin:633px 450px;-webkit-animation:leftArmFrames linear 2s;-webkit-animation-iteration-count:infinite;-webkit-transform-origin:633px 450px;-moz-animation:leftArmFrames linear 2s;-moz-animation-iteration-count:infinite;-moz-transform-origin:633px 450px;-o-animation:leftArmFrames linear 2s;-o-animation-iteration-count:infinite;-o-transform-origin:633px 450px;-ms-animation:leftArmFrames linear 2s;-ms-animation-iteration-count:infinite;-ms-transform-origin:633px 450px}@keyframes leftArmFrames{0%,100%{transform:rotate(0)}50%{transform:rotate(10deg)}}@-moz-keyframes leftArmFrames{0%,100%{-moz-transform:rotate(0)}50%{-moz-transform:rotate(10deg)}}@-webkit-keyframes leftArmFrames{0%,100%{-webkit-transform:rotate(0)}50%{-webkit-transform:rotate(10deg)}}@-o-keyframes leftArmFrames{0%,100%{-o-transform:rotate(0)}50%{-o-transform:rotate(10deg)}}@-ms-keyframes leftArmFrames{0%,100%{-ms-transform:rotate(0)}50%{-ms-transform:rotate(10deg)}}.employee-right-arm{animation:rightArmFrames linear 2s;animation-iteration-count:infinite;transform-origin:372px 450px;-webkit-animation:rightArmFrames linear 2s;-webkit-animation-iteration-count:infinite;-webkit-transform-origin:372px 450px;-moz-animation:rightArmFrames linear 2s;-moz-animation-iteration-count:infinite;-moz-transform-origin:372px 450px;-o-animation:rightArmFrames linear 2s;-o-animation-iteration-count:infinite;-o-transform-origin:372px 450px;-ms-animation:rightArmFrames linear 2s;-ms-animation-iteration-count:infinite;-ms-transform-origin:372px 450px}@keyframes rightArmFrames{0%,100%{transform:rotate(-10deg)}50%{transform:rotate(0)}}@-moz-keyframes rightArmFrames{0%,100%{-moz-transform:rotate(-10deg)}50%{-moz-transform:rotate(0)}}@-webkit-keyframes rightArmFrames{0%,100%{-webkit-transform:rotate(-10deg)}50%{-webkit-transform:rotate(0)}}@-o-keyframes rightArmFrames{0%,100%{-o-transform:rotate(-10deg)}50%{-o-transform:rotate(0)}}@-ms-keyframes rightArmFrames{0%,100%{-ms-transform:rotate(-10deg)}50%{-ms-transform:rotate(0)}}</style><defs><clipPath><path d="M0 7000h9000V0H0v7000z"/></clipPath><clipPath id="D"><path d="M3196 1086.4h525.5V749.6H3196v336.8z"/></clipPath><clipPath id="c"><path d="M4046.3 2030.8h1906.3v-1427H4046.3v1427z"/></clipPath><clipPath id="d"><path d="M4046.3 2030.8h1906.3v-1427H4046.3v1427z"/></clipPath><clipPath id="e"><path d="M5852.4 2030.8H5368l-1321.7-1427h1768c53.4 0 96.7 44 96.7 98.5l41.6 1228.3c0 55.3-44.8 100.2-100.2 100.2"/></clipPath><clipPath id="a"><path d="M-20074 28074h32766V-4692h-32766v32766z"/></clipPath><clipPath id="b"><path d="M-20074 28074h32766V-4692h-32766v32766z"/></clipPath><linearGradient id="g" x2="1" gradientUnits="userSpaceOnUse" gradientTransform="matrix(1e-7,-1426.9512,-1426.9512,-1e-7,4999.4883,2030.7949)"><stop offset="0" stop-color="#fff"/><stop offset=".6" stop-color="#fff"/><stop offset=".7" stop-color="#231f20"/><stop offset="1" stop-color="#231f20"/></linearGradient><mask id="E" width="1" height="1" x="0" y="0" maskUnits="userSpaceOnUse"><g clip-path="url(#c)" opacity=".2"><g clip-path="url(#e)"><path fill="url(#g)" d="M5852.4 2030.8H5368l-1321.7-1427h1768c53.4 0 96.7 44 96.7 98.5l41.6 1228.3c0 55.3-44.8 100.2-100.2 100.2" mask="url(#f)"/></g></g></mask><clipPath id="F"><path d="M4046.3 2030.8h1906.3v-1427H4046.3v1427z"/></clipPath><linearGradient id="G" x2="1" gradientUnits="userSpaceOnUse" gradientTransform="matrix(1e-7,-1426.9512,-1426.9512,-1e-7,4999.4883,2030.7949)"><stop offset="0" stop-color="#fff"/><stop offset=".6" stop-color="#fff"/><stop offset=".7" stop-color="#fff"/><stop offset="1" stop-color="#fff"/></linearGradient><clipPath id="H"><path d="M7297.4 1177h186.2V600.5h-186.2V1177z"/></clipPath><clipPath id="j"><path d="M1959 3457.8h497v-522.4h-497v522.4z"/></clipPath><clipPath id="k"><path d="M1924.7 3499.5H2456v-564h-531.3v564z"/></clipPath><clipPath id="l"><path d="M2015.5 3427.2c90.7 72.3 258.8 12 375.4-134.3 26.7-33.7 48.4-69 65-104.2l-294.7-253.4c-35 25.6-68.7 57.8-99 95.8-116.6 146.5-137.6 323.8-46.8 396"/></clipPath><clipPath id="h"><path d="M-20074 28074h32766V-4692h-32766v32766z"/></clipPath><clipPath id="i"><path d="M-20074 28074h32766V-4692h-32766v32766z"/></clipPath><linearGradient id="n" x2="1" gradientUnits="userSpaceOnUse" gradientTransform="matrix(-307.05093,-260.95786,260.95786,-307.05093,2309.3059,3369.0967)"><stop offset="0" stop-color="#231f20"/><stop offset=".7" stop-color="#231f20"/><stop offset="1" stop-color="#393536"/></linearGradient><mask width="1" height="1" x="0" y="0" maskUnits="userSpaceOnUse"><g clip-path="url(#j)"><g clip-path="url(#l)"><path fill="url(#n)" d="M2015.5 3427.2c90.7 72.3 258.8 12 375.4-134.3 26.7-33.7 48.4-69 65-104.2l-294.7-253.4c-35 25.6-68.7 57.8-99 95.8-116.6 146.5-137.6 323.8-46.8 396" mask="url(#m)"/></g></g></mask><clipPath><path d="M1959 3457.8h497v-522.4h-497v522.4z"/></clipPath><linearGradient x2="1" gradientUnits="userSpaceOnUse" gradientTransform="matrix(-307.05093,-260.95786,260.95786,-307.05093,2309.3062,3369.0964)"><stop offset="0" stop-color="#fff"/><stop offset=".7" stop-color="#fff"/><stop offset="1" stop-color="#fff"/></linearGradient><clipPath id="q"><path d="M1698.5 3867.4h397.3v-409.6h-397.3v409.6z"/></clipPath><clipPath id="r"><path d="M1614.8 3867.4h481v-409.6h-481v409.6z"/></clipPath><clipPath id="s"><path d="M2095.8 3640.7c-136.8-11-248.2-69.5-296.8-183 0 0-184.2 186-53.8 409.7 14.6-5 29.7-10.8 45.2-17.6 91.5-40.2 198.4-112.5 305.4-209"/></clipPath><clipPath id="o"><path d="M-20074 28074h32766V-4692h-32766v32766z"/></clipPath><clipPath id="p"><path d="M-20074 28074h32766V-4692h-32766v32766z"/></clipPath><linearGradient id="u" x2="1" gradientUnits="userSpaceOnUse" gradientTransform="matrix(-318.24896,228.3517,-228.3517,-318.24896,1930.2534,3567.7832)"><stop offset="0" stop-color="#393536"/><stop offset=".5" stop-color="#231f20"/><stop offset="1" stop-color="#231f20"/></linearGradient><mask width="1" height="1" x="0" y="0" maskUnits="userSpaceOnUse"><g clip-path="url(#q)"><g clip-path="url(#s)"><path fill="url(#u)" d="M2095.8 3640.7c-136.8-11-248.2-69.5-296.8-183 0 0-184.2 186-53.8 409.7 14.6-5 29.7-10.8 45.2-17.6 91.5-40.2 198.4-112.5 305.4-209" mask="url(#t)"/></g></g></mask><clipPath><path d="M1698.5 3867.4h397.3v-409.6h-397.3v409.6z"/></clipPath><linearGradient x2="1" gradientUnits="userSpaceOnUse" gradientTransform="matrix(-318.24896,228.3517,-228.3517,-318.24896,1930.2533,3567.7832)"><stop offset="0" stop-color="#fff"/><stop offset=".5" stop-color="#fff"/><stop offset="1" stop-color="#fff"/></linearGradient><clipPath><path d="M1989.8 3335h4733.6V597.3H1989.8V3335z"/></clipPath><clipPath id="C"><path d="M396 203.3h3v-109h-3v109z"/></clipPath><clipPath id="B"><path d="M398.2 203.3h3.2v-109h-3.2v109z"/></clipPath><clipPath id="A"><path d="M400.5 203.3h3.2v-109h-3.2v109z"/></clipPath><clipPath><path d="M375.3 199h84v-97h-84v97z"/></clipPath><clipPath><path d="M421.5 199h48v-60h-48v60z"/></clipPath><clipPath><path d="M391.6 199h77.8v-97h-77.8v97z"/></clipPath><clipPath><path d="M487.3 397.7h32.4V390h-32.4v7.7z"/></clipPath><clipPath><path d="M484 390H516v-7.5H484v7.6z"/></clipPath><clipPath id="z"><path d="M322.4 77h2.3v-2.8h-2.3V77z"/></clipPath><clipPath id="y"><path d="M291 76.5h2.3V74H291v2.5z"/></clipPath><clipPath id="x"><path d="M348 98h14v-.8h-14v.8z"/></clipPath><clipPath id="w"><path d="M349.6 79.4h4v-4.2h-4v4.2z"/></clipPath><clipPath id="v"><path d="M344.8 85h40V37h-40v48z"/></clipPath></defs><path fill="#0095eb" d="M0 500h1000V0H0v500z"/><path fill="#fff" d="M0 400.4h1000v10H0z"/><path fill="#0093b1" d="M0 500h1000v-89.7H0V500z"/><path fill="#fff" d="M867 375h-43v20h43v-20z"/><path fill="#e3f5ff" d="M826.2 377.3h38.4v15.5h-38.4v-15.5z"/><path fill="#bccbd4" d="M838.2 385c0 3-2.4 5.4-5.3 5.4-3 0-5.5-2.4-5.5-5.4 0-3 2.4-5.3 5.4-5.3 2.8 0 5.2 2.4 5.2 5.3"/><path fill="#859096" d="M833.8 382.4c0 .5-.4 1-1 1-.4 0-.8-.5-.8-1s.4-1 1-1c.4 0 .8.5.8 1M833.8 387.8c0 .5-.4 1-1 1-.4 0-.8-.5-.8-1s.4-1 1-1c.4 0 .8.5.8 1"/><path fill="#bccbd4" d="M850.7 385c0 3-2.4 5.4-5.3 5.4-3 0-5.4-2.4-5.4-5.4 0-3 2.4-5.3 5.4-5.3 3 0 5.3 2.4 5.3 5.3"/><path fill="#859096" d="M846.3 382.4c0 .5-.4 1-1 1-.4 0-.8-.5-.8-1s.4-1 1-1c.4 0 .8.5.8 1M846.3 387.8c0 .5-.4 1-1 1-.4 0-.8-.5-.8-1s.4-1 1-1c.4 0 .8.5.8 1"/><path fill="#bccbd4" d="M863.2 385c0 3-2.4 5.4-5.3 5.4-3 0-5.5-2.4-5.5-5.4 0-3 2.4-5.3 5.4-5.3 2.8 0 5.2 2.4 5.2 5.3"/><path fill="#859096" d="M858.8 382.4c0 .5-.4 1-1 1-.4 0-.8-.5-.8-1s.4-1 1-1c.4 0 .8.5.8 1M858.8 387.8c0 .5-.4 1-1 1-.4 0-.8-.5-.8-1s.4-1 1-1c.4 0 .8.5.8 1"/><path fill="#4d4d4d" d="M863.2 385c0 3-2.4 5.4-5.3 5.4-3 0-5.5-2.4-5.5-5.4 0-3 2.4-5.3 5.4-5.3 2.8 0 5.2 2.4 5.2 5.3"/><path fill="#666" d="M858 389c-1 0-1.7-.6-1.7-1.5v-5c0-1 .7-1.6 1.6-1.6.8 0 1.5.6 1.5 1.5v5c0 1-.7 1.6-1.6 1.6"/><path fill="#666" d="M879.3 386.6H858v-3h21.3v3z"/><path fill="#f2f2f2" d="M876.2 310h99v103.5c0 1.3-1 2.3-2.3 2.3h-94.4c-1.3 0-2.4-1-2.4-2.3V310z"/><path fill="#4d4d4d" d="M876.2 357.5h99v2h-16v3.4c0 .7-.7 1.3-1.5 1.3h-19.2c-1.4 0-2.6-.6-3.5-1.6l-2.5-3.2h-56.3v-2zM876.2 379h99v2h-16v3.5c0 .8-.7 1.5-1.5 1.5h-19.2c-1.4 0-2.6-.7-3.5-1.7l-2.5-3.2h-56.3v-2zM876.2 396.3h99v2h-16v3.4c0 .8-.7 1.4-1.5 1.4h-19.2c-1.4 0-2.6-.5-3.5-1.6l-2.5-3.2h-56.3v-2z"/><path fill="#fff" d="M876.2 291.6V310h23v-16c0-1.5 1-2.5 2.3-2.5h63.2c1.3 0 2.3-1.2 2.2-2.5l-.4-2.5-1-9c0-1-1-2-2-2H880c-1.2 0-2.2 1-2.4 2.3l-1.4 13.5v.3"/><path fill="#ccc" d="M895.5 290.4V308c0 1 1 2 2 2h1.6v-16c0-1.5 1.2-2.5 2.5-2.5h63.2c1.3 0 2.3-1.2 2.2-2.5l-.4-2.5h-67.2c-2 0-4 1.8-4 4"/><path fill="#fff" d="M899 308h74.2c1 0 2 1 2 2h-76v-2z"/><path fill="#4d4d4d" d="M964.7 291.5v5l1.7.6c1.8.8 3 2.6 3 4.5v2.4c2 0 3.8 1.6 3.8 3.7v.2H899v-16.5h65.7z"/><path fill="#ccc" d="M885.3 271h74.3c1.3 0 2.3 1 2.3 2.2v2.4h-79v-2.4c0-1.3 1-2.3 2.3-2.3"/><path fill="#333" d="M893.8 259.3l31.7 7.8.7-4-32-6-.4 2.3z"/><path fill="#ccc" d="M932 262h14.4c5.6 0 10.8 3.4 13 8.6l.2.3H908v-.2c6.8-5.6 15.2-8.7 24-8.7"/><path fill="#5d8cab" d="M906.5 285.6h39c.7 0 1.4-.7 1.4-1.5v-5c0-1-.8-1.6-1.6-1.6h-39c-.8 0-1.5.7-1.5 1.5v5c0 1 .6 1.6 1.5 1.6"/><path fill="#333" d="M889.4 417c2.8 0 5 2.2 5 5v.3h-10v-.4c0-2.8 2.2-5 5-5"/><path fill="#333" d="M887.7 415.7h3.4v2.7h-3.3v-2.7z"/><path fill="#4d4d4d" d="M885.4 422c0 2.2 1.8 4 4 4s4-1.8 4-4-1.8-4-4-4-4 1.8-4 4"/><path fill="#333" d="M967 417.2h.2c2.7 0 5 2.2 5 5v.3h-10v-.4c0-2.6 2.2-4.8 5-4.8"/><path fill="#333" d="M965.4 415.8h3.4v2.8h-3.4v-2.8z"/><path fill="#4d4d4d" d="M963.2 422.2c0 2.2 1.7 4 4 4 2 0 4-1.8 4-4s-2-4-4-4c-2.3 0-4 1.8-4 4"/><path fill="#e3ab43" d="M225 319.5h-94.3v110H225v-110z"/><path fill="#f0bb59" d="M137.6 326.5H218v96.2h-80.4v-96.2z"/><g fill-opacity=".2" clip-path="url(#v)" transform="matrix(1.25,0,0,-1.25,-5104.2227,4486.1113) matrix(1.6109823,0,0,1.6109805,3638.0558,3191.0012)"><path d="M345.6 84h39v1H345V37h.8v47z"/></g><g fill-opacity=".2" clip-path="url(#w)" transform="matrix(1.25,0,0,-1.25,-5104.2227,4486.1113) matrix(1.6109823,0,0,1.6109805,3638.0558,3191.0012)"><path d="M353.7 77.3c0-1-1-2-2-2-1.2 0-2 1-2 2 0 1.2.8 2 2 2 1 0 2-.8 2-2"/></g><path fill="#ccc" d="M153.7 340c0 2.2-2 4-4.2 4-2.3 0-4.2-1.8-4.2-4 0-2.5 2-4.3 4.2-4.3 2.3 0 4.2 1.8 4.2 4.2"/><path fill="#f2f2f2" d="M150.4 338.4c0 1.2-1 2-2 2-1.3 0-2.3-.8-2.3-2s1-2 2.3-2c1 0 2 .8 2 2"/><path fill="#090" d="M168.2 266.7c.3-.6.5-1.3.5-2s-.2-1.4-.5-2c-.6-1.3-1.4-2.6-2.5-3.7-1.7-2-3.8-3.4-6-4.8-3.6-2.4-7.3-5-11-7.3 2 3 2 6.7 1.6 10.2-.4 3.6-1.3 7-1.2 10.6.2 1.5.4 3 1 4.4.4.6.8 1.2 1.4 1.5 1 .6 2.4 0 3.3-.7 1-.8 1.6-1.8 2.5-2.6 1-1 2.2-1.5 3.3-1 .7 0 1.2.7 1.8 1 1.2.7 3 .6 4-.4 1-.8 1.5-2 2-3.3"/><path fill="#477323" d="M153.8 253.3c1.5 1.8 2.3 4 3 6.2.4-.5 1-.7 1.6-.7-.4.6-.8 1.3-1 2 1.3-.3 2.8-.4 4.3-.5-.5.8-1.2 1.3-1.8 2-.8.6-1.3 1.4-1 2.3l4.7.6-4.5 1.2c1.8.3 3.7 1 4.3 2.6-.7-.8-1.7-1.3-2.7-1.5h-.8c-.5.2-.7.7-.6 1.2 0 .6.3 1 .4 1.6 1 4 3.5 12.4 4.5 18.4 1 5.4 1.6 11.3 1.3 16.8-.3 0-.7 0-1 .2.6-5 .4-9.8-.6-14.6-1.3-6.4-2.7-12.2-4.7-19-.3-1.2-.3-2.6-1.3-3-.5-.3-1-.3-1.5-.3-.7 0-1.3.4-2 .8.8-1 1.7-1.6 2.8-1.8-.6-.5-3.4-1-4-1 0-.6 4-1.5 3.8-2-.2-.8-3.8-2.8-4.5-2.6.3-.7 2.7.2 3.3-.5.5-.6-.5-3.4-.7-4.2-.8-2.3-2-4.6-3.4-6.6.5 1 1.4 1.8 2.2 2.6"/><path fill="#3f6b2c" d="M168.4 292.2c0-2 0-4 .2-6 0-3.5 0-7 .5-10.5.5-2.2 1.2-4.3 2-6.5h-.7c-.2.2-.4.4-.4.6-1.5 3.4-1.7 7-1.8 10.8l-1 24.8c.2 0 .5 0 .7-.2-.5-1.2.2-11 .4-13"/><path fill="#55913b" d="M173.7 264.6c-1.3-2.5-1.8-5.3-1.5-8-.5.7-.6 1.6-.6 2.6l-.2 3.4-1-1.6c0 1.7 0 3.4.2 5-.7-.2-1.3-.8-1.6-1.5 0 1 .2 2.2.4 3.4 0 .3 0 .8.4 1.2.2.4.7.7 1 .6.2-2 1.2-4 3-5.2"/><path fill="#0a0" d="M202 234c-2.8 7.3-8.8 12.7-12.6 19.5-1.6 2.8-2.8 5.8-4.5 8.6-1.7 3-4 5.4-6 8-1.3 1.3-2.7 2.7-4.5 3-1.8.4-4-1-3.7-3 0 0-.2 0-.3.2-1 .5-1.7 1.2-2.6 1.7-1 .4-2.5.5-3.2-.4l-.4-1.2c-.5-3 .4-6 2-8.4 1.4-2.5 3.5-4.7 5.5-6.8l6-6.4c2-1.8 3.6-3.6 5.7-5 5.6-4 13-5 18.2-9.7"/><path fill="#55913b" d="M175 258c.5 1 .6 2 .5 3.2 1.8-3 4.2-5.6 6.5-8.2 1.5-1.6 3-3 4.3-4.7 2-2 4-4.3 6.3-5.8l-1.7.5-.4-1-2.3 4.2c-.5-1-.6-2-.5-2.8-.3 2-1.3 4-2.7 5.7v-1.8c-.5 1.8-1.5 3.3-2.8 4.6-.4-1-1-2-1.6-3l-.2 2.4c-.3 0-.5-.2-.8-.3v1.5l-.6-1.2-1.3 5c-.7-.5-1.2-1.3-1.5-2.2.3 1.7.2 3.4-.2 5-.6 0-1-.6-1-1"/><path fill-opacity=".2" d="M189.4 253.5c-1.6 2.8-2.8 5.8-4.5 8.6-1.7 3-4 5.4-6 8-1.3 1.3-2.7 2.7-4.5 3-1.8.4-4-1-3.7-3 0 0-.2 0-.3.2 0-2.5 2.3-4.4 3.8-6.5 1.6-2 2.5-4.7 4-7 2-2.7 5-4.7 7.4-7.4 1.4-1.7 2.6-3.6 4.2-5 1.7-2 4-3 6-4.5 2.3-1.5 4.3-3.5 6-5.7-2.8 7.3-8.8 12.7-12.6 19.5"/><path fill-opacity=".2" d="M177.2 266.2c-1 0-2 0-2.8.5 1.3-2.5 3.5-4.5 6-5.6h-2.2c.2-.2.6-.5 1-.5l-.7-.6c2.3-2 5-3.6 7.8-4.8l-4.7.6c2.6-2 5-4 7-6.6-1.4.4-2.7 1-3.7 2 1-1 2-2.5 2.8-4-1 1.3-2.3 2.5-3.6 3.6-1 .8-2 1.5-2.8 2.4-1 1.2-2.2 2.3-3 3.6-2.8 4.4-7 8-8 13 2.4-.6 4.8-1.2 7.2-2-1.5 0-3 0-4.4.6 1.2-1 2.5-1.8 4-2.2"/><path fill="#0a0" d="M166.3 258.8c-.8.5-2 0-2.4-1-.5-.8-.8-1.8-1.6-2.4-.6-.4-1.3-.5-2-.2-1 .4-2 1.6-2.5 2.8-.8 2-.8 4.2-2.2 5.6-1.3 1.3-3.5 1.5-5.2.7-1.7-.8-3-2.5-3.5-4.2-2-5 0-10.5 2-15.5l9.3-23.8c1-2.6 2.5-5.7 5.3-6.4-1.7 7.3.3 15 2.2 22.3 1.8 7.3 3.4 15.2.5 22.2"/><path fill-opacity=".1" d="M166.3 258.8c-.8.5-2 0-2.4-1-.5-.8-.8-1.8-1.6-2.4-.6-.4-1.3-.5-2-.2l.3-2c1.5-8-2-16-2-24 0-2.3.4-4.6 1-7 1-2.8 2.2-5.5 4-8-1.8 7.4.2 15 2 22.4 2 7.3 3.5 15.2.6 22.2"/><path fill-opacity=".2" d="M165.6 254.5c-1.2-1.3-3.2-1.7-5-1.2v-.2c1.6-7.7-2-15.7-2-23.7 0-2.4.5-4.7 1.2-7 0 .3 0 .5.3.6.7 0 1-1.2 1.6-1-1 1.2-2 2.5-2.5 4l1.3-.5c-.7 1.2-1.2 2.7-1 4.2l2.5-2.5c-1.2 1.5-2 3.3-2.4 5 .4-.4 1-.8 1.6-1-.7 2-1 4.3-.6 6.4l2.7-1.8-1.8 6.2c0-.3.5.2.5.6v2h.8c.2 1.3 1.6 2.2 3 2.8-1.4-.6-3 .4-3.3 1.8.5-.3 1.2 0 1.5.4-.6 0-1 .3-1.4.8 2 0 3.6 2 3.3 4"/><path fill-opacity=".2" d="M160 220.3l-.8 6.4c0 1.5-.3 3-.2 4.4 0 1.6.4 3 .7 4.4 1 5 1.5 10 1.6 15 0 1.2 0 2.4-1 2.8-.5.2-1 .2-1.4.2-1.5.2-2.5 1.3-3.4 2.3l-2.3 2.7c-.5.5-1 1-1.4 1.2-.7.2-1.5 0-1.8-.4.7.2 1.4 0 2-.6l1-1.8c1-1.8 2.4-3.4 4.3-4-2.3 0-4.6.3-6.8 1 1.4-1.2 3.2-2 5-2.2.4 0 .7 0 1-.3v-.3c.6-1 .5-2 0-3-.6-.7-1.6-1.2-2.6-1.2 1-.2 2-.5 2.8-1l-1-1c.5 0 1 0 1.4-.2v-1.8c.2 0 .6 0 .7-.4 0-.3 0-.7-.2-1-.5-2-1.4-3.8-2.6-5.4h1.7c0-1.7 0-3.5.2-5.3.2-3.6.5-7.6 2.8-10.4"/><path fill="#68994b" d="M141.5 269c3.8 2 6.8 5 9.7 8.3 1.3 1.5 2.7 3 3.2 5 .4-.5 1.3-.3 2 0 1.8 1 3.5 2.6 5 4.3-.5-3.4-2.7-6.3-5-8.7-3.4-3.3-7.3-5.8-11-8.2-2.3-1.4-4.5-2.8-7-3.6-1.7-.5-3.6-.4-5.2-1.4 2.3 2 5.5 2.7 8.3 4"/><path fill="#52783b" d="M133.2 264.8c3.3 2.3 7.3 3.5 10.7 5.8l3 2.7c2 2 4 4 5.7 6.4 1.8 2.5 3.5 5 5 7.8 1.4 2 2.7 4.2 3.3 6.6.4 1.4.6 3 .7 4.3l.8 7.4h1l-1.6-10-1-4.6c-1-2-2.2-4-3.5-6-4.4-6.2-9-12.8-16-16.2-.5-.3-1-.6-1.7-.8l-1.5-.8c-1.7-.7-3.4-1.7-5-2.4"/><path fill="#52783b" d="M151.7 276.3h.5l.6.2c1.7.8 3.2 2 4.3 3.6l-2-1.2c-.4-.3-1-.6-1.7-.5 0 .3 0 .5.4.7l.7.2c.7.3 1.5.6 2 1 .4.3.7.7.6 1-.7-.5-1.6-1-2.6-1 0 .2 0 .4.2.5.2 0 .3.2.5.3.3.2.3.7 0 1l-2.5-3.2c-1.4-1.8-3-3.6-4.8-5-.6-.4-1.3-1-1.2-1.8 0 .4.3.8.7 1 .4 0 1 0 1-.6.2.2.3.5.3.8 0 .3.3.7.6.7.2-.3.4-.4.6-.4 0 .5.2 1 .4 1.4l.4-.2c.2.5.5 1 1 1.2 0 .2 0 .3.3.3M164.3 292.4c.6 3 1 5.8.7 8.8 0 1.3-.2 2.7.2 4h-1c.4-17-3.8-33.7-4.5-50.7.3 0 .6-.2 1 0-.2 1.5 0 3.2.2 4.8.5 6 1 11.8 1.7 17.6l.5 3.8.6 3c.6 2.8 0 5.7.5 8.6"/><path fill="#a67c52" d="M148.2 292.5l1.6 7.6.3 1.7 3.7 17.8h20l3.7-17.8.3-1.6 1.5-7.5h-31z"/><path fill="#c69c6d" d="M164.2 292.5l-.4 27h7l3-17.8.4-1.6 1.2-7.5h-11.2z"/><path fill="#a67c52" d="M148.2 300h31v-7.5h-31v7.6z"/><path fill="#c69c6d" d="M165 300h10.4v-7.5H165v7.6z"/><g clip-path="url(#x)" transform="matrix(1.25,0,0,-1.25,-5104.2227,4486.1113) matrix(-1.6109823,0,0,1.6109805,4786.3709,3191.0014)"><path fill="#e6e6e6" d="M362 98l-.2-.8h-13.5l-.2.8h14z"/></g><path fill="#666" d="M105.8 424.4h-5.6v-65.6c0-1.2 1-2 2.2-2h1.2c1.2 0 2.2.8 2.2 2v65.6z"/><path fill="#ccc" d="M104 356.7h-1c-1.2 0-2 1-2 2v65.7h1v-65.6c0-1.2 1-2 2-2"/><path fill="#3d3d3d" d="M105.8 422.5h-5.6v2h5.6v-2z"/><path fill="#666" d="M26.5 424.4H21v-65.6c0-1.2 1-2 2-2h1.3c1.2 0 2.2.8 2.2 2v65.6z"/><path fill="#ccc" d="M24.6 356.7h-1c-1 0-2 1-2 2v65.7h1v-65.6c0-1.2 1-2 2-2"/><path fill="#3d3d3d" d="M26.5 422.5H21v2h5.5v-2z"/><path fill="#666" d="M97.2 358.4h-4.5v-16h4.5v16z"/><path fill="#ccc" d="M95 358.4h-1.5v-16H95v16z"/><path fill="#666" d="M34 359.5h-4.5v-16H34v16z"/><path fill="#ccc" d="M31.8 359.5h-1.5v-16h1.5v16z"/><path fill="#666" d="M90.2 380.3c-18 2.7-36 2.7-53.7 0-7.2-1-12.5-7.3-12.5-14.5v-.3c0-5.8 5-10.3 10.7-9.8 19.2 1.8 38.2 2 57.2 0 5.7-.5 10.7 4 10.7 9.8v.2c0 7.3-5.3 13.5-12.5 14.6"/><path fill="#4d4d4d" d="M90.2 373c-18 2.7-36 2.7-53.7 0-6-1-10.5-5.2-12-10.7-.3 1-.5 2-.5 3.2v.3c0 7.2 5.3 13.4 12.5 14.5 17.8 2.7 35.7 2.7 53.7 0 7.2-1 12.5-7.3 12.5-14.6v-.2c0-1-.2-2.2-.5-3.2-1.5 5.5-6 9.8-12 10.7"/><g clip-path="url(#y)" transform="matrix(1.25,0,0,-1.25,-5104.2227,4486.1113) matrix(1.6109823,0,0,1.6109805,3638.0558,3191.0012)"><path fill="#ccc" d="M293.3 76.5V74l-1 .5h-.2s-.3 0-.5.2l-.4.3v1.5h2.3z"/></g><g clip-path="url(#z)" transform="matrix(1.25,0,0,-1.25,-5104.2227,4486.1113) matrix(1.6109823,0,0,1.6109805,3638.0558,3191.0012)"><path fill="#ccc" d="M324.7 77v-2l-1-.5-.8-.2h-.6V77h2.3z"/></g><path fill="#4d4d4d" d="M83 299.7H43.7c-8.2 0-15 6.3-15.5 14.5l-1.6 24c-.2 3.2 1.8 6 5 7 20.6 6.4 41.7 6.5 63.3 0 3-1 5.2-3.8 5-7l-1.6-24c-.6-8.2-7.3-14.5-15.5-14.5"/><path fill="#666" d="M42 305h42.7c5.3 0 10 2.5 13.2 6.4-1.8-6.8-8-11.7-15-11.7H43.7c-7.2 0-13.3 5-15 11.7 3-4 7.8-6.4 13.2-6.4"/><path fill="#999" d="M282.6 241h183V103.3h-183v138z"/><path fill="#15202a" d="M288 235.7h172.3v-127H288v127z"/><path fill="#fff" d="M329.6 203.4c.4 0 .7.4.7 1 0 .5-.3 1-.7 1-.3 0-.6-.5-.6-1 0-.6.3-1 .6-1M346.6 150.3c.4 0 .7.5.7 1 0 .6-.3 1-.7 1-.3 0-.6-.4-.6-1 0-.5.3-1 .6-1M362 200c.3 0 .6.4.6 1 0 .4-.3 1-.6 1-.4 0-.7-.6-.7-1 0-.6.3-1 .7-1M328 108.7c1.3 4 2 8 2 12.5 0 21-16.8 38-37.7 38-1.4 0-3-.2-4.3-.4v-50h40z"/><path fill="#d0f5f3" d="M289 243l6 3.8V103.2h-6V243zM297.4 243l6 3.8V103.2h-6V243zM305.8 243l6 3.8V103.2h-6V243z"/><path fill="#fff" d="M322 166.7c.3 0 .6.5.6 1s-.3 1-.7 1c-.4 0-.7-.5-.7-1s.3-1 .6-1"/><path fill="#d0f5f3" d="M314 243l6.2 3.8V103.2h-6V243zM322.5 243l6 3.8V103.2h-6V243zM330.8 243l6 3.8V103.2h-6V243zM339.2 243l6 3.8V103.2h-6V243zM347.6 243l6 3.8V103.2h-6V243zM356 243l6 3.8V103.2h-6V243zM370.4 103.2V243l4 2.6 2 1.2V103.2h-6z"/><g fill-opacity=".2" clip-path="url(#A)" transform="matrix(1.25,0,0,-1.25,-5104.2227,4486.1113) matrix(1.0450934,0,0,1.0450923,3961.0593,3293.8475)"><path d="M400.5 203.3v-107l3.2-2v109h-3.2z"/></g><path fill="#d0f5f3" d="M367.3 103.2V243l4.2 2.6 2 1.2V103.2h-6.2z"/><g fill-opacity=".2" clip-path="url(#B)" transform="matrix(1.25,0,0,-1.25,-5104.2227,4486.1113) matrix(1.0450934,0,0,1.0450923,3961.0593,3293.8475)"><path d="M398.2 203.3v-107l3.2-2v109h-3.2z"/></g><path fill="#d0f5f3" d="M364.3 103.2V243l4 2.6 2 1.2V103.2h-6z"/><g fill-opacity=".2" clip-path="url(#C)" transform="matrix(1.25,0,0,-1.25,-5104.2227,4486.1113) matrix(1.0450934,0,0,1.0450923,3961.0593,3293.8475)"><path d="M396 203.3v-107l3-2v109h-3z"/></g><path fill="#85827f" d="M277 98h193.4v5.2H277V98z"/><path fill="#fff" d="M384.3 171c.4 0 .7.3.7 1 0 .4-.3.8-.7.8-.4 0-.7-.4-.7-1 0-.5.3-1 .7-1M408.7 116.2c.4 0 .7-.3.7-.7 0-.4-.3-.7-.7-.7-.4 0-.7.3-.7.7 0 .4.3.7.7.7M426.8 164c.3 0 .6-.2.6-.6 0-.4-.3-.7-.6-.7-.4 0-.7.3-.7.7 0 .4.4.7.8.7M442.2 142.8c.3 0 .6-.3.6-.7 0-.2-.3-.5-.6-.5-.4 0-.7.3-.7.6 0 .5.3.8.7.8M400.3 179.8c.3 0 .6-.3.6-.6 0-.4-.4-.7-.7-.7-.4 0-.7.3-.7.7 0 .3.3.6.7.6M385.4 143.4c.4 0 .7-.3.7-.7 0-.4-.2-.7-.6-.7-.3 0-.6.3-.6.7 0 .4.3.7.6.7M459.2 188.7c.3 0 .6-.3.6-.7 0-.4-.3-.7-.6-.7-.4 0-.7.3-.7.7 0 .4.3.7.7.7M388.8 187.3c0 .3.2.7.6.7.4 0 .7-.4.7-.7 0-.4-.2-.7-.6-.7-.4 0-.6.3-.6.7M426.4 208c.4 0 .7.4.7 1 0 .5-.2 1-.6 1-.3 0-.6-.5-.6-1 0-.6.3-1 .6-1M450.2 129.2c.3 0 .6.5.6 1s-.3 1-.6 1c-.4 0-.7-.5-.7-1s.3-1 .7-1M391 156c.3 0 .6.6.6 1 0 .7-.3 1-.6 1-.4 0-.7-.3-.7-1 0-.4.3-1 .7-1M380 125.7c.4 0 .7.4.7 1 0 .5-.3 1-.6 1s-.6-.5-.6-1c0-.6.3-1 .7-1M448 213c.3 0 .6.5.6 1 0 .6-.3 1-.7 1-.4 0-.7-.4-.7-1 0-.5.3-1 .6-1M377.8 209.5c.4 0 .7.4.7 1 0 .5-.3 1-.7 1-.3 0-.6-.5-.6-1 0-.6.3-1 .6-1M424 124.4c0-.4.4-.7.8-.7s.7.3.7.7c0 .3-.3.6-.7.6-.4 0-.7-.3-.7-.6M403 135.4c0-.4.4-.7.8-.7.3 0 .7.3.7.7 0 .3-.3.6-.7.6-.4 0-.7-.3-.7-.6M435.6 153.8c0-.3.3-.6.6-.6.4 0 .7.3.7.6 0 .4-.4.7-.8.7-.3 0-.6-.3-.6-.7M448.7 168.5c0-.4.3-.7.7-.7.4 0 .7.3.7.7 0 .3-.2.6-.6.6-.4 0-.7 0-.7-.5M414 188c0-.4.3-.7.7-.7.3 0 .7.3.7.6s-.3.6-.7.6c-.4 0-.7-.3-.7-.7M405.6 190.8c.4 0 .7.3.7.7 0 .4-.3.7-.7.7-.3 0-.7-.3-.7-.7 0-.4.2-.7.6-.7M393.8 117.5c0-.4.3-.7.7-.7.4 0 .7.3.7.7 0 .3-.3.6-.7.6-.4 0-.7-.2-.7-.5M404.2 120.5c0-.4.3-.7.7-.7.2 0 .5.3.5.7 0 .3-.3.6-.6.6-.5 0-.8 0-.8-.5M430.5 184.7c0-.4.3-.7.7-.7.3 0 .7.3.7.7 0 .3-.4.6-.8.6s-.7-.3-.7-.6M394.4 211.4c0-.3.3-.6.6-.6.4 0 .7.3.7.6 0 .4-.3.7-.7.7-.3 0-.6-.2-.6-.6M393.6 140.4c0-.3.3-.6.7-.6.4 0 .7.3.7.6 0 .4-.3.7-.7.7-.4 0-.7-.2-.7-.6M401 221.2c0-.3.3-.6.7-.6.3 0 .6.3.6.6 0 .4-.3.7-.6.7-.4 0-.7-.4-.7-.8M384.7 157c.4 0 .7.3.7.7 0 .4-.3.7-.7.7-.4 0-.7-.3-.7-.7 0-.4.3-.7.7-.7M404.7 166.8c0-.4.3-.7.7-.7.3 0 .6.4.6.8s-.3.7-.6.7c-.4 0-.7-.3-.7-.7"/><g><path fill="#252423" d="M836 161.3c-18.7 17.4-48 16.4-65.5-2.3-17.4-18.7-16.4-48 2.3-65.5s48-16.4 65.5 2.3 16.5 48-2.3 65.5"/><path fill="#6f7072" d="M833.4 158.4c-17 16-44 15-60-2-16-17.2-15-44 2-60 17.2-16 44-15 60 2 16 17.2 15.2 44-2 60"/><path fill="#fff" d="M831.8 156.7c-16.2 15.2-41.6 14.3-56.7-2-15-16-14.2-41.5 2-56.7 16.3-15 41.7-14.2 56.8 2 15 16.2 14.2 41.6-2 56.7"/><path fill="#3a393a" d="M806.7 94.5c0 .5-.4 1-1 1h-.4c-.5 0-1-.6-1-1l.3-5.3c0-.6.5-1 1-1h.4c.5 0 1 .5 1 1l-.3 5.3zM771.5 125c.5 0 1 .6 1 1v.5c0 .5-.5 1-1 1l-5.3-.3c-.5 0-1-.4-1-1v-.4c0-.5.6-1 1-1l5.3.3zM802 160.3c0-.5.6-1 1-1h.5c.5 0 1 .6 1 1l-.2 5.3c0 .5-.5 1-1 1h-.4c-.7 0-1-.5-1-1v-5.3zM837.3 129.7c-.5 0-1-.5-1-1v-.4c0-.5.6-1 1-1l5.4.3c.5 0 1 .4 1 1v.3c0 .5-.6 1-1 1l-5.4-.3z"/><path fill="#1d1c19" d="M797.8 119.4l2-1.2 22.3 34.3-1.8 1.2-22.4-34.3z"/><path fill="#1d1c19" d="M798.2 133l-1.4-2.4 5.8-3.8.5-.8 16.6-10.8 2 3.2-16.7 11h-1.2l-5.6 3.6z"/><path fill="#a1a2a0" d="M801.2 129.5c-1-1.8-.6-4 1-5.3 2-1 4.2-.6 5.4 1 1 2 .6 4.2-1 5.4-2 1-4.2.6-5.4-1"/><path fill="#4d4d4f" d="M802 129c-.8-1.4-.4-3 1-4 1.2-.8 3-.5 3.8 1 .8 1.2.4 3-1 3.8-1.2.8-3 .4-3.8-1"/></g><g><path fill="#ffd49f" d="M510 21.6c0 5.2-4.2 9.4-9.4 9.4s-9.4-4.2-9.4-9.4 4.2-9.4 9.4-9.4 9.4 4.2 9.4 9.4"/></g><path fill="#fff" d="M469.4 0c-6.3 7.2-10.2 16.6-10.2 27h81.6c0-10.4-4-19.8-10.2-27h-61.2z"/><path fill="#ebfffd" d="M470 0c-6.5 7.2-10.3 16.6-10.3 27h40.7V0H470z"/><path fill-opacity=".2" d="M0 0v500h295.6c-14-12-22.5-22.5-26.8-41.3L459.2 27h81.6L731 458.7c-2 15.8-7.4 28.8-20.7 41.3H1000V0H0z"/><path fill="#1b1918" d="M506 334.6s56 .4 69.2 13.4c13.3 13 24.3 30 26.3 32.3 2 2.2 1.2 6.2 3.4 8.7 2.2 2.6 14.4 19 15.5 21.5 1 2.6 10.2 9.7 12.2 14.2s4.8 21.5 2.2 25c-2.6 3.3-6.3 8.4-19.6 8.4s-28.3-22-31.7-25.4c-3.4-3.4-10.2-8-11.3-12-1.2-3.8-2.6-8.4-5.4-11.8 0 0 1 12.8 1.7 16 .5 3 1 15.2-1.4 19.4-2.6 4.3.8 15 .8 18 0 3.3-110.8 6.7-110.8 6.7L445 406s-16.4 17.3-17.6 19.3c-1 2-6.8 27.7-16 33.4-9.4 5.6-35.8 1.7-38.6-6.5-2.8-8.3-1-23.8 3.4-30.3 4.2-6.6 8.5-7 10-9.5 1.3-2.5 5.6-8.2 7-10.8 1.4-2.5 3.4-7.6 6.5-9.3 3-1.7 5.4-.3 7.6-3 2.3-3 2.3-9 7.4-16 5-6.7 12.7-16 16.4-18.6 3.8-2.6 7-10 12.3-12.5 5.4-2.5 28-5 35.8-6.3 8-1.3 27-1.4 27-1.4"/><path fill="#3d2615" d="M694.2 500h-386l-12.8-57.5h409.2z"/><g><path fill="#4e4f51" d="M483.6 343.4s4.5 18 15.4 19.5c10 1.2 17.3-13 18.6-18l-19-8-15 6.4z"/></g><g><path fill="#100f0d" d="M441 357.6c-3.7-5.8 5 12 0 29l-7.3 1.6s-4-2.3-4.7-1.6c-.8.7 0 4-7.5 1.6-7.6-2.5-2 1.2 1.2 3.3 3.3 2 9.3 6 10.4 7.3 1.2 1.3-8-2-10-1.5s10.3 8.4 10.6 10.3c.4 2-19.3-3-21.4-2.3-2.2.5 7.7 6.2 8.7 7.4 1 1.3-3.3 2.7-5.8 3.3-2.6.5-8.5-.4-8.6.7 0 1.2 4.2 4.8 3.8 5.8-.5 1-17.7-9.4-31 1l8.3 11.2 34.5 6.5c3-7.6 4.6-15 5.2-16 1.2-2 17.6-19.2 17.6-19.2l1.8-23.2s-2-19.5-5.7-25.2"/></g><g><path fill="#100f0d" d="M599.2 419.2c-1.7-2-7.7-3.3-9.8-5-2-1.7.8-5.7-.5-6.5-1.4-.8-12.8 2.2-14-1-.6-1.7 7.7-15.7 6-15.4-2 .2-9.4 4.4-9.8 3-.4-1.7 15.2-15 14.5-16.4-.7-1.5-16.8 7.2-17.2 6-3-7.8 1.8-29 0-24.5-7.2 17.3-7.8 58.6-7.8 58.6 0 5 1.3 5-1 5.5-4.7 1-.8 17.6-.8 17.6l9.2 1c1.5-5.4 1-14.6.5-17.3-.6-3-1.7-16-1.7-16 2.8 3.5 4.2 8 5.4 12 1 4 8 8.5 11.3 12 1 1 3.6 4.4 7 8.3l34-16.7c-7.4-8.5-23.8-3-25.5-5"/></g><g><path fill="#6b779b" d="M504.5 257.5l1.5.3-1.5-.3"/></g><g class="employee-left-arm"><path fill="#445578" d="M625.6 425.3l.2.2s-.2 0-.2-.2M625.4 425s0 .2.2.3l-.2-.3M626.3 426V426.2M625.8 425.5c0 .2.3.4.5.6-.2 0-.3-.3-.5-.5M625 424.8l.4.2s-.2 0-.3-.2M625 424.6v0M626.5 426.3v0M624.7 424.3l.2.2c-.2 0-.2 0-.3-.2M627.6 427.7l.3.2c-.2 0-.3-.2-.4-.3M627.5 427.5v0M626.7 426.6l.3.3c0-.2-.2-.3-.3-.4M627.2 427v.2M627.2 427.2l.2.2-.2-.2M627 427h0"/><path fill="#1b1918" d="M617.7 422c-7.7 0-18 5-23 6.8-5 2-7 .2-9.6 1-2.3.6-7 5.4-11.4 5.4-4.5 0-15.7 2.3-21 4-5 1.7-4.4 18-4.4 18s17 .4 21.8 0c4.8-.2 6.3-1 7.6-1 1.2 0 3 1 6 1.3 3 0 12-4 15.7-4.3 3.6-.3 23.4 3.5 33.4-1 2.8-3.8 4.2-8.6 2.4-15.3 0 0-5.7-15-17.3-15"/><path fill="#100f0d" d="M632.7 452.3c1-1 1.6-2 2.2-2.7 1-1.3 1-4.6.8-8.4 0 3.6-2.4 4.6-3 2-.7-2.4-4.7-7.2-5.5-6.5-.8.8 3.3 12.3 2.3 12.3s-1.3-2.4-1.8-3.3c-.6-1-1.5 1-2.3.4-1-.6-4-4.3-4.6-4-.7.2 3.6 8.8.7 9.6-3 .8-17.7-2.7-20-2.7-2.5 0-8.7 3.3-10 3.3-1.6 0-.3-3.4-3.3-6-.8-.8 1.2 4.7-1.8 9.3l-1.4 1.7c4-.8 11-4 14-4 3.7-.4 23 3.7 33.5-1M561.5 437s6.2-.6 9.5 0c3.4.5 10.8 3.5 13.3 8 2.5 4.7 1 9-.6 10.7-1.4 1.6-3.5-.8-6.6-1-3 0-15 2.7-18.5 1.5-3.7-1-6-12.3-6-12.3l9-7z"/><path fill="#faccbb" d="M584.3 445c-2-3.8-7.8-6.5-11.5-7.6-1.4.3-2.8.6-4 .3-2-.6-7.3-.7-7.3-.7l-9-.3s1 17.7 4.2 18.2c3.2.4 8.4 2.4 12.4 2.5 4.2 0 7.8-3.4 7.8-3.4l7.3 1.3c1.4-2 2.6-6 .3-10.2"/><path fill="#f7adb0" d="M569 457.5c3 0 5.8-1.8 7-2.8l-.7-1.7c-3.6 2.3-8.7 0-10.5 0-1 0-3.3 1.4-5.4 2.5 3 .8 6.7 2 9.7 2"/><path fill="#f7adb0" d="M572.8 437.4c-1.4.3-2.8.6-4 .3-1-.4-3.2-.5-5-.6 7.4 1.4 12.6 4.4 12.8 10.7.3 6.2-4 8-7 9.7 4-.2 7.2-3.3 7.2-3.3l7.3 1.3c1.4-2 2.6-6 .3-10.2-2-3.8-7.8-6.5-11.5-7.6"/><path fill="#e991a0" d="M584.3 445l-.4-.6s1 5-2.4 7.3c-2 1.5-3.4.6-3.7 1-.5.3-.8 1-1.2 1.4l7.3 1.3c1.4-2 2.6-6 .3-10.2"/></g><g class="employee-right-arm"><path fill="#1b1918" d="M434 435.7c-4-1-10 .2-11.7 0-1.8-.2-1-2-2-2.4-1-.3-3.6-.5-7.2-2.8-3.6-2.4-15.4-10.2-21.5-10.2-6 0-15.5 4-17.6 6.4-2.6 7.3-3.4 18-1.4 24.7 2.5 2 5.5 2 7.5 2.3 3.5.5 12.8.8 14.7.8 2 0 6.8 2 10.3 2.7 3.4.7 5-1 6.5-1 1.4 0 3.3 1.2 6 1 2.7 0 6.5-1.6 8.6-1.6h8s4.3-19 0-20"/><path fill="#100f0d" d="M407.6 457.3c-1.6-.2-4.2-3-3-6.5 1.3-3.5-1.7 3-2.6 3.2-1 .2-7.2-2-8-3.4-1-1.2-1-4.6-1.4-4.8-.5-.3-4 7-5.5 6.8-1.4-.3-2.8-1-3-1.6 0-.6 5.5-8.2 5-8.6-.6-.5-11 7.8-12.8 7.4-1.6-.3 3-12.8 2.5-13.7-.4-.7-4.5 7-5.2 8-.8 1.2.2-4.4.6-5.6.6-1 5.4-8.2 4.8-8.7-.5-.5-4.2 3.7-5 5-1 1.4-1-3.7-1-3.7-1.6 6.8-2 15-.2 20.4 2.5 2 5.5 2 7.5 2.3 3.5.5 12.8.8 14.7.8 2 0 6.8 2 10.3 2.7 1 .2 1.8.2 2.6 0"/><g clip-path="url(#D)" opacity=".1" transform="matrix(1.25,0,0,-1.25,-5104.2227,4486.1113) translate(0,-17.1478) matrix(0.04559024,0,0,0.04559024,4262.4911,3207.187)"><path fill="#f5f016" d="M3713 1076c-46.6 4.6-116.5 10.4-162.6 10.4-74.4 0-317.4-60.4-354-267.3-4.5-25.8 18.3-63.7 42.6-62.2s69.7 27.4 123 0c44.3-22.8 112.4 14.3 197.5 32.5 42.5 9 95 4.8 136.8-1.8 13 69.4 38.5 225.2 16.7 288.6"/></g><path fill="#faccbb" d="M434.5 453.7c.8-4 2.2-12.8 1-16.5-2.7-.2-6.7-.5-9.3-.5-4.2 0-18 3.4-20 15.2-.4 1.4 1 3.5 2.3 3.4.5 0 1.3-.3 2.2-.5 2.5-.6 6.8-2 7.7-2 1 0 4.7 4.4 9 4.4 2.4 0 6-2.5 8-2.8l-1-1z"/><path fill="#f7adb0" d="M435.3 454.6l-.8-1 .3-1c-.4 0-.8 0-1.2.2-3.5 1-12.4 1-13.5-1-1-1.8-1-.6-2.2-1.6-1.2-1-3.2-4.8-1.5-8 1.8-3 9-5 11.4-5.5h-1.5c-4.2 0-18 3.4-20 15.2-.4 1.4 1 3.5 2.3 3.4.5 0 1.3-.3 2.2-.5 2.5-.6 6.8-2 7.7-2 1 0 4.7 4.4 9 4.4 2.4 0 6-2.5 8-2.8"/><g><path fill="#e991a0" d="M416 451c-.8 0-4.2.6-4.7-2.5-1-5.3 4-8.6 4-8.6-4.3 2.3-8.2 6-9.2 12-.2 1.4 1 3.5 2.5 3.4.5 0 1.3-.3 2.2-.5 2.5-.6 6.8-2 7.7-2-1.8-1-1.8-2-2.5-2"/></g></g><g><path fill="#d3d2d2" d="M560.7 458.5c0 3-2.4 5.7-5.5 5.7H438.4c-3 0-5.5-2.6-5.5-5.7l-2.5-70c0-3 2.6-5.7 5.7-5.7h121.2c3.2 0 5.7 2.6 5.7 5.7l-2.3 70z"/></g><g><g mask="url(#E)" transform="matrix(1.25,0,0,-1.25,-5104.2227,4486.1113) matrix(0.04559024,0,0,0.04559024,4262.4911,3190.0392)"><g clip-path="url(#F)" opacity=".2"><path fill="url(#G)" d="M5852.4 2030.8H5368l-1321.7-1427h1768c53.4 0 96.7 44 96.7 98.5l41.6 1228.3c0 55.3-44.8 100.2-100.2 100.2"/></g></g></g><g><path fill="#b9b7b8" d="M560.7 453.6c0 3-2.4 5.6-5.5 5.6H438.4c-3 0-5.5-2.5-5.5-5.6v5c0 3 2.4 5.6 5.4 5.6h116.8c3 0 5.5-2.6 5.5-5.7v-5z"/></g><g><path fill="#ae252c" d="M661.7 461.7s8.2-4 12-6.4c5.4-3.5 8.3-7 8.3-13.7 0-6.5-3.6-9.4-7-9.4-3 0-4.4 1.5-6.4 1.5l-2.2.2.3 7.8s2 .2 2.6-1.6c.5-1 1.7-5.5 5.2-5.5 3.7 0 5 3 5 8 0 6-7 12.6-15.5 12.5l-2.3 6.5z"/></g><g><path fill="#a12229" d="M680.4 442.6c0-5.3-1.6-8.5-5.8-8.5-4 0-5.4 4.8-6 6-.4 1-1.3 1.6-2 1.7 0 0 2 .3 2.7-1.5.5-1 1.7-5.5 5.2-5.5 3.7 0 5 3 5 8 0 6-7 12.6-15.5 12.5l-.3.8c9.3-.4 16.8-7.2 16.7-13.4"/></g><g><path fill="#b62630" d="M653.8 431.2h15.6c0 7.3-.2 22-6.6 30.3-.8 1-1.7 3-9 3-7.4 0-8.3-2-9-3-6.5-8.4-6.7-23-6.7-30.3H654z"/></g><g><path fill="#aa2328" d="M667.2 431.2c0 7.3-.2 22-6.7 30.3-.7 1-1.6 2.8-8 3h1.3c7.3 0 8.2-2 9-3 6.4-8.4 6.6-23 6.6-30.3h-2.2z"/></g><g><g clip-path="url(#H)" opacity=".2" transform="matrix(1.25,0,0,-1.25,-5104.2227,4486.1113) matrix(0.04559024,0,0,0.04559024,4262.4911,3190.0392)"><path fill="#fff" d="M7451 632.4c-112.5 152-116.5 413.7-116.5 544.6h-37c0-131 4-392.5 116.4-544.6 4-5.4 8-12.3 15.4-19.3 13.2-5.2 30.6-9.7 54.2-12.5-19.2 10.7-26.2 23.2-32.6 32"/></g></g><g><path fill="#b62630" d="M669.4 431.2c0-1.5-7-2.7-15.6-2.7-8.7 0-15.7 1.2-15.7 2.7 0 1.5 7 2.7 15.8 2.7 8.6 0 15.6-1.3 15.6-2.8"/></g><g><path fill="#991b22" d="M668.3 431.2c0-1-6.5-2-14.5-2s-14.5 1-14.5 2 6.5 2 14.5 2 14.5-1 14.5-2"/></g><g><path fill="#f6ccbf" d="M517.3 341l-.8-21.8h-32.8v24.2c2.8 3.5 15 8.6 34 1.6v-1c-.3-1.4-.4-2-.4-3"/></g><g><path fill="#f6ccbf" d="M470.8 298.5c1 5 3.7 8.5 5.8 8 2-.5 2.8-5 1.6-9.8-1-5-3.7-8.5-5.8-8-2 .5-2.8 5-1.6 9.8"/></g><g><path fill="#f6ccbf" d="M530.2 298.5c-1.2 5-3.8 8.5-6 8-2-.5-2.7-5-1.5-9.8 1.2-5 3.8-8.5 5.8-8s2.8 5 1.7 9.8"/></g><g><path fill="#f7ddc5" d="M524 267.3v40.2c0 13.4-12.5 26.8-15.7 29.2-2 1.6-11.8 2.5-16 .2-4-2.4-15.8-15.5-15.8-30.6v-39l45.6-5.7 2 5.6z"/></g><g><path fill="#855333" d="M527 263l3.7-10.5-8.6 2.4 3.6-5.3-10.6 2 5.2-4c-4.7-.3-11 .8-17.2 2l-2 .5-23 5-1 4-5.6-3 2.7 24c.4 6.3 1 13 2.5 17.4.4-7 4.3-14.5 4.3-14.5s-2.6-8-2-11c0 0 10.7 3.7 21.2 3.8 10.4 0 20.5-3.4 20.5-3.4 2 3.8-1.5 11-1.5 11s4 8.8 5 14.2c0 0 1-4.8 2-10.8l6-27-5 3z"/></g><g><path fill="#76492c" d="M525.8 270l-4.5.8.8-6.4-7.2 4 5-10.8-10 6.3 1-6c-4.7 0-19 11-25.3 16 4 .8 9.3 1.8 14.5 1.8 10.4 0 20.5-3.4 20.5-3.4.6 1 .7 2.5.5 4 3-3.5 4.8-6.3 4.8-6.3"/></g><g><path fill="#855333" d="M524 297.6s0 15.6-6.2 19.5c-1-1.6-3.4-6.3-5.3-6.7-2.4-.5-10.4-.5-10.7 0-.4.5-.7 2 0 2.6.6.5 8.7.4 9.7 1 .7.2 2.2 2.4 2.8 5.8-1.2 3.7-4.8 12.2-14 12.2-8.6 0-12.4-7.4-13.8-11.4.5-4 2-6.3 3-6.7 1-.6 9-.5 9.7-1 .6-.8.3-2.2 0-2.7-.4-.5-8.4-.5-10.7 0-2 .4-4.7 5.4-5.5 7-6.5-3.6-6.5-19.7-6.5-19.7v8.8c0 15 11.8 28.2 16 30.5 4 2.2 13.7 1.3 15.8-.3 3.2-2.4 15.7-15.8 15.7-29.2v-10z"/></g></svg>